<svg width="200" height="59" viewBox="0 0 200 59" fill="none" xmlns="http://www.w3.org/2000/svg">
<path d="M16 43.2905V15.7095C16 14.6429 16.4591 13.9063 17.3773 13.5L33.4459 29.5L17.3773 45.5C16.4591 45.0429 16 44.3064 16 43.2905ZM38.5726 34.6048L20.9736 44.6619L34.8232 30.8714L38.5726 34.6048ZM44.0053 27.5952C44.6684 28.1032 45 28.7381 45 29.5C45 30.2619 44.6939 30.8968 44.0818 31.4048L40.3325 33.5381L36.2005 29.5L40.3325 25.4619L44.0053 27.5952ZM20.9736 14.3381L38.5726 24.3952L34.8232 28.1286L20.9736 14.3381Z" fill="white"/>
<path d="M64.4238 15.252V18.375C64.3184 18.5312 64.1504 18.707 63.9199 18.9023C63.6895 19.0938 63.3711 19.2617 62.9648 19.4062C62.5625 19.5469 62.043 19.6172 61.4062 19.6172C60.8867 19.6172 60.4082 19.5273 59.9707 19.3477C59.5371 19.1641 59.1602 18.8984 58.8398 18.5508C58.5234 18.1992 58.2773 17.7734 58.1016 17.2734C57.9297 16.7695 57.8438 16.1992 57.8438 15.5625V14.9004C57.8438 14.2637 57.918 13.6953 58.0664 13.1953C58.2188 12.6953 58.4414 12.2715 58.7344 11.9238C59.0273 11.5723 59.3867 11.3066 59.8125 11.127C60.2383 10.9434 60.7266 10.8516 61.2773 10.8516C61.9297 10.8516 62.4746 10.9648 62.9121 11.1914C63.3535 11.4141 63.6973 11.7227 63.9434 12.1172C64.1934 12.5117 64.3535 12.9609 64.4238 13.4648H63.293C63.2422 13.1562 63.1406 12.875 62.9883 12.6211C62.8398 12.3672 62.627 12.1641 62.3496 12.0117C62.0723 11.8555 61.7148 11.7773 61.2773 11.7773C60.8828 11.7773 60.541 11.8496 60.252 11.9941C59.9629 12.1387 59.7246 12.3457 59.5371 12.6152C59.3496 12.8848 59.209 13.2109 59.1152 13.5938C59.0254 13.9766 58.9805 14.4082 58.9805 14.8887V15.5625C58.9805 16.0547 59.0371 16.4941 59.1504 16.8809C59.2676 17.2676 59.4336 17.5977 59.6484 17.8711C59.8633 18.1406 60.1191 18.3457 60.416 18.4863C60.7168 18.627 61.0488 18.6973 61.4121 18.6973C61.8145 18.6973 62.1406 18.6641 62.3906 18.5977C62.6406 18.5273 62.8359 18.4453 62.9766 18.3516C63.1172 18.2539 63.2246 18.1621 63.2988 18.0762V16.166H61.3242V15.252H64.4238ZM68.7656 19.6172C68.3242 19.6172 67.9238 19.543 67.5645 19.3945C67.209 19.2422 66.9023 19.0293 66.6445 18.7559C66.3906 18.4824 66.1953 18.1582 66.0586 17.7832C65.9219 17.4082 65.8535 16.998 65.8535 16.5527V16.3066C65.8535 15.791 65.9297 15.332 66.082 14.9297C66.2344 14.5234 66.4414 14.1797 66.7031 13.8984C66.9648 13.6172 67.2617 13.4043 67.5938 13.2598C67.9258 13.1152 68.2695 13.043 68.625 13.043C69.0781 13.043 69.4688 13.1211 69.7969 13.2773C70.1289 13.4336 70.4004 13.6523 70.6113 13.9336C70.8223 14.2109 70.9785 14.5391 71.0801 14.918C71.1816 15.293 71.2324 15.7031 71.2324 16.1484V16.6348H66.498V15.75H70.1484V15.668C70.1328 15.3867 70.0742 15.1133 69.9727 14.8477C69.875 14.582 69.7188 14.3633 69.5039 14.1914C69.2891 14.0195 68.9961 13.9336 68.625 13.9336C68.3789 13.9336 68.1523 13.9863 67.9453 14.0918C67.7383 14.1934 67.5605 14.3457 67.4121 14.5488C67.2637 14.752 67.1484 15 67.0664 15.293C66.9844 15.5859 66.9434 15.9238 66.9434 16.3066V16.5527C66.9434 16.8535 66.9844 17.1367 67.0664 17.4023C67.1523 17.6641 67.2754 17.8945 67.4355 18.0938C67.5996 18.293 67.7969 18.4492 68.0273 18.5625C68.2617 18.6758 68.5273 18.7324 68.8242 18.7324C69.207 18.7324 69.5312 18.6543 69.7969 18.498C70.0625 18.3418 70.2949 18.1328 70.4941 17.8711L71.1504 18.3926C71.0137 18.5996 70.8398 18.7969 70.6289 18.9844C70.418 19.1719 70.1582 19.3242 69.8496 19.4414C69.5449 19.5586 69.1836 19.6172 68.7656 19.6172ZM75.1523 13.1602V13.9922H71.7246V13.1602H75.1523ZM72.8848 11.6191H73.9688V17.9297C73.9688 18.1445 74.002 18.3066 74.0684 18.416C74.1348 18.5254 74.2207 18.5977 74.3262 18.6328C74.4316 18.668 74.5449 18.6855 74.666 18.6855C74.7559 18.6855 74.8496 18.6777 74.9473 18.6621C75.0488 18.6426 75.125 18.627 75.1758 18.6152L75.1816 19.5C75.0957 19.5273 74.9824 19.5527 74.8418 19.5762C74.7051 19.6035 74.5391 19.6172 74.3438 19.6172C74.0781 19.6172 73.834 19.5645 73.6113 19.459C73.3887 19.3535 73.2109 19.1777 73.0781 18.9316C72.9492 18.6816 72.8848 18.3457 72.8848 17.9238V11.6191ZM80.5781 13.1602V19.5H79.4883V13.1602H80.5781ZM79.4062 11.4785C79.4062 11.3027 79.459 11.1543 79.5645 11.0332C79.6738 10.9121 79.834 10.8516 80.0449 10.8516C80.252 10.8516 80.4102 10.9121 80.5195 11.0332C80.6328 11.1543 80.6895 11.3027 80.6895 11.4785C80.6895 11.6465 80.6328 11.791 80.5195 11.9121C80.4102 12.0293 80.252 12.0879 80.0449 12.0879C79.834 12.0879 79.6738 12.0293 79.5645 11.9121C79.459 11.791 79.4062 11.6465 79.4062 11.4785ZM84.9727 13.1602V13.9922H81.5449V13.1602H84.9727ZM82.7051 11.6191H83.7891V17.9297C83.7891 18.1445 83.8223 18.3066 83.8887 18.416C83.9551 18.5254 84.041 18.5977 84.1465 18.6328C84.252 18.668 84.3652 18.6855 84.4863 18.6855C84.5762 18.6855 84.6699 18.6777 84.7676 18.6621C84.8691 18.6426 84.9453 18.627 84.9961 18.6152L85.002 19.5C84.916 19.5273 84.8027 19.5527 84.6621 19.5762C84.5254 19.6035 84.3594 19.6172 84.1641 19.6172C83.8984 19.6172 83.6543 19.5645 83.4316 19.459C83.209 19.3535 83.0312 19.1777 82.8984 18.9316C82.7695 18.6816 82.7051 18.3457 82.7051 17.9238V11.6191ZM88.9336 16.4004V16.2656C88.9336 15.8086 89 15.3848 89.1328 14.9941C89.2656 14.5996 89.457 14.2578 89.707 13.9688C89.957 13.6758 90.2598 13.4492 90.6152 13.2891C90.9707 13.125 91.3691 13.043 91.8105 13.043C92.2559 13.043 92.6562 13.125 93.0117 13.2891C93.3711 13.4492 93.6758 13.6758 93.9258 13.9688C94.1797 14.2578 94.373 14.5996 94.5059 14.9941C94.6387 15.3848 94.7051 15.8086 94.7051 16.2656V16.4004C94.7051 16.8574 94.6387 17.2812 94.5059 17.6719C94.373 18.0625 94.1797 18.4043 93.9258 18.6973C93.6758 18.9863 93.373 19.2129 93.0176 19.377C92.666 19.5371 92.2676 19.6172 91.8223 19.6172C91.377 19.6172 90.9766 19.5371 90.6211 19.377C90.2656 19.2129 89.9609 18.9863 89.707 18.6973C89.457 18.4043 89.2656 18.0625 89.1328 17.6719C89 17.2812 88.9336 16.8574 88.9336 16.4004ZM90.0176 16.2656V16.4004C90.0176 16.7168 90.0547 17.0156 90.1289 17.2969C90.2031 17.5742 90.3145 17.8203 90.4629 18.0352C90.6152 18.25 90.8047 18.4199 91.0312 18.5449C91.2578 18.666 91.5215 18.7266 91.8223 18.7266C92.1191 18.7266 92.3789 18.666 92.6016 18.5449C92.8281 18.4199 93.0156 18.25 93.1641 18.0352C93.3125 17.8203 93.4238 17.5742 93.498 17.2969C93.5762 17.0156 93.6152 16.7168 93.6152 16.4004V16.2656C93.6152 15.9531 93.5762 15.6582 93.498 15.3809C93.4238 15.0996 93.3105 14.8516 93.1582 14.6367C93.0098 14.418 92.8223 14.2461 92.5957 14.1211C92.373 13.9961 92.1113 13.9336 91.8105 13.9336C91.5137 13.9336 91.252 13.9961 91.0254 14.1211C90.8027 14.2461 90.6152 14.418 90.4629 14.6367C90.3145 14.8516 90.2031 15.0996 90.1289 15.3809C90.0547 15.6582 90.0176 15.9531 90.0176 16.2656ZM97.1484 14.5137V19.5H96.0645V13.1602H97.0898L97.1484 14.5137ZM96.8906 16.0898L96.4395 16.0723C96.4434 15.6387 96.5078 15.2383 96.6328 14.8711C96.7578 14.5 96.9336 14.1777 97.1602 13.9043C97.3867 13.6309 97.6562 13.4199 97.9688 13.2715C98.2852 13.1191 98.6348 13.043 99.0176 13.043C99.3301 13.043 99.6113 13.0859 99.8613 13.1719C100.111 13.2539 100.324 13.3867 100.5 13.5703C100.68 13.7539 100.816 13.9922 100.91 14.2852C101.004 14.5742 101.051 14.9277 101.051 15.3457V19.5H99.9609V15.334C99.9609 15.002 99.9121 14.7363 99.8145 14.5371C99.7168 14.334 99.5742 14.1875 99.3867 14.0977C99.1992 14.0039 98.9688 13.957 98.6953 13.957C98.4258 13.957 98.1797 14.0137 97.957 14.127C97.7383 14.2402 97.5488 14.3965 97.3887 14.5957C97.2324 14.7949 97.1094 15.0234 97.0195 15.2812C96.9336 15.5352 96.8906 15.8047 96.8906 16.0898Z" fill="white"/>
<path d="M71.6211 35.0039V41.25C71.4102 41.5625 71.0742 41.9141 70.6133 42.3047C70.1523 42.6875 69.5156 43.0234 68.7031 43.3125C67.8984 43.5938 66.8594 43.7344 65.5859 43.7344C64.5469 43.7344 63.5898 43.5547 62.7148 43.1953C61.8477 42.8281 61.0938 42.2969 60.4531 41.6016C59.8203 40.8984 59.3281 40.0469 58.9766 39.0469C58.6328 38.0391 58.4609 36.8984 58.4609 35.625V34.3008C58.4609 33.0273 58.6094 31.8906 58.9062 30.8906C59.2109 29.8906 59.6562 29.043 60.2422 28.3477C60.8281 27.6445 61.5469 27.1133 62.3984 26.7539C63.25 26.3867 64.2266 26.2031 65.3281 26.2031C66.6328 26.2031 67.7227 26.4297 68.5977 26.8828C69.4805 27.3281 70.168 27.9453 70.6602 28.7344C71.1602 29.5234 71.4805 30.4219 71.6211 31.4297H69.3594C69.2578 30.8125 69.0547 30.25 68.75 29.7422C68.4531 29.2344 68.0273 28.8281 67.4727 28.5234C66.918 28.2109 66.2031 28.0547 65.3281 28.0547C64.5391 28.0547 63.8555 28.1992 63.2773 28.4883C62.6992 28.7773 62.2227 29.1914 61.8477 29.7305C61.4727 30.2695 61.1914 30.9219 61.0039 31.6875C60.8242 32.4531 60.7344 33.3164 60.7344 34.2773V35.625C60.7344 36.6094 60.8477 37.4883 61.0742 38.2617C61.3086 39.0352 61.6406 39.6953 62.0703 40.2422C62.5 40.7812 63.0117 41.1914 63.6055 41.4727C64.207 41.7539 64.8711 41.8945 65.5977 41.8945C66.4023 41.8945 67.0547 41.8281 67.5547 41.6953C68.0547 41.5547 68.4453 41.3906 68.7266 41.2031C69.0078 41.0078 69.2227 40.8242 69.3711 40.6523V36.832H65.4219V35.0039H71.6211ZM74.4688 37.3008V37.0312C74.4688 36.1172 74.6016 35.2695 74.8672 34.4883C75.1328 33.6992 75.5156 33.0156 76.0156 32.4375C76.5156 31.8516 77.1211 31.3984 77.832 31.0781C78.543 30.75 79.3398 30.5859 80.2227 30.5859C81.1133 30.5859 81.9141 30.75 82.625 31.0781C83.3438 31.3984 83.9531 31.8516 84.4531 32.4375C84.9609 33.0156 85.3477 33.6992 85.6133 34.4883C85.8789 35.2695 86.0117 36.1172 86.0117 37.0312V37.3008C86.0117 38.2148 85.8789 39.0625 85.6133 39.8438C85.3477 40.625 84.9609 41.3086 84.4531 41.8945C83.9531 42.4727 83.3477 42.9258 82.6367 43.2539C81.9336 43.5742 81.1367 43.7344 80.2461 43.7344C79.3555 43.7344 78.5547 43.5742 77.8438 43.2539C77.1328 42.9258 76.5234 42.4727 76.0156 41.8945C75.5156 41.3086 75.1328 40.625 74.8672 39.8438C74.6016 39.0625 74.4688 38.2148 74.4688 37.3008ZM76.6367 37.0312V37.3008C76.6367 37.9336 76.7109 38.5312 76.8594 39.0938C77.0078 39.6484 77.2305 40.1406 77.5273 40.5703C77.832 41 78.2109 41.3398 78.6641 41.5898C79.1172 41.832 79.6445 41.9531 80.2461 41.9531C80.8398 41.9531 81.3594 41.832 81.8047 41.5898C82.2578 41.3398 82.6328 41 82.9297 40.5703C83.2266 40.1406 83.4492 39.6484 83.5977 39.0938C83.7539 38.5312 83.832 37.9336 83.832 37.3008V37.0312C83.832 36.4062 83.7539 35.8164 83.5977 35.2617C83.4492 34.6992 83.2227 34.2031 82.918 33.7734C82.6211 33.3359 82.2461 32.9922 81.793 32.7422C81.3477 32.4922 80.8242 32.3672 80.2227 32.3672C79.6289 32.3672 79.1055 32.4922 78.6523 32.7422C78.207 32.9922 77.832 33.3359 77.5273 33.7734C77.2305 34.2031 77.0078 34.6992 76.8594 35.2617C76.7109 35.8164 76.6367 36.4062 76.6367 37.0312ZM88.1562 37.3008V37.0312C88.1562 36.1172 88.2891 35.2695 88.5547 34.4883C88.8203 33.6992 89.2031 33.0156 89.7031 32.4375C90.2031 31.8516 90.8086 31.3984 91.5195 31.0781C92.2305 30.75 93.0273 30.5859 93.9102 30.5859C94.8008 30.5859 95.6016 30.75 96.3125 31.0781C97.0312 31.3984 97.6406 31.8516 98.1406 32.4375C98.6484 33.0156 99.0352 33.6992 99.3008 34.4883C99.5664 35.2695 99.6992 36.1172 99.6992 37.0312V37.3008C99.6992 38.2148 99.5664 39.0625 99.3008 39.8438C99.0352 40.625 98.6484 41.3086 98.1406 41.8945C97.6406 42.4727 97.0352 42.9258 96.3242 43.2539C95.6211 43.5742 94.8242 43.7344 93.9336 43.7344C93.043 43.7344 92.2422 43.5742 91.5312 43.2539C90.8203 42.9258 90.2109 42.4727 89.7031 41.8945C89.2031 41.3086 88.8203 40.625 88.5547 39.8438C88.2891 39.0625 88.1562 38.2148 88.1562 37.3008ZM90.3242 37.0312V37.3008C90.3242 37.9336 90.3984 38.5312 90.5469 39.0938C90.6953 39.6484 90.918 40.1406 91.2148 40.5703C91.5195 41 91.8984 41.3398 92.3516 41.5898C92.8047 41.832 93.332 41.9531 93.9336 41.9531C94.5273 41.9531 95.0469 41.832 95.4922 41.5898C95.9453 41.3398 96.3203 41 96.6172 40.5703C96.9141 40.1406 97.1367 39.6484 97.2852 39.0938C97.4414 38.5312 97.5195 37.9336 97.5195 37.3008V37.0312C97.5195 36.4062 97.4414 35.8164 97.2852 35.2617C97.1367 34.6992 96.9102 34.2031 96.6055 33.7734C96.3086 33.3359 95.9336 32.9922 95.4805 32.7422C95.0352 32.4922 94.5117 32.3672 93.9102 32.3672C93.3164 32.3672 92.793 32.4922 92.3398 32.7422C91.8945 32.9922 91.5195 33.3359 91.2148 33.7734C90.918 34.2031 90.6953 34.6992 90.5469 35.2617C90.3984 35.8164 90.3242 36.4062 90.3242 37.0312ZM110.633 30.8203H112.602V43.2305C112.602 44.3477 112.375 45.3008 111.922 46.0898C111.469 46.8789 110.836 47.4766 110.023 47.8828C109.219 48.2969 108.289 48.5039 107.234 48.5039C106.797 48.5039 106.281 48.4336 105.688 48.293C105.102 48.1602 104.523 47.9297 103.953 47.6016C103.391 47.2812 102.918 46.8477 102.535 46.3008L103.672 45.0117C104.203 45.6523 104.758 46.0977 105.336 46.3477C105.922 46.5977 106.5 46.7227 107.07 46.7227C107.758 46.7227 108.352 46.5938 108.852 46.3359C109.352 46.0781 109.738 45.6953 110.012 45.1875C110.293 44.6875 110.434 44.0703 110.434 43.3359V33.6094L110.633 30.8203ZM101.902 37.3008V37.0547C101.902 36.0859 102.016 35.207 102.242 34.418C102.477 33.6211 102.809 32.9375 103.238 32.3672C103.676 31.7969 104.203 31.3594 104.82 31.0547C105.438 30.7422 106.133 30.5859 106.906 30.5859C107.703 30.5859 108.398 30.7266 108.992 31.0078C109.594 31.2812 110.102 31.6836 110.516 32.2148C110.938 32.7383 111.27 33.3711 111.512 34.1133C111.754 34.8555 111.922 35.6953 112.016 36.6328V37.7109C111.93 38.6406 111.762 39.4766 111.512 40.2188C111.27 40.9609 110.938 41.5938 110.516 42.1172C110.102 42.6406 109.594 43.043 108.992 43.3242C108.391 43.5977 107.688 43.7344 106.883 43.7344C106.125 43.7344 105.438 43.5742 104.82 43.2539C104.211 42.9336 103.688 42.4844 103.25 41.9062C102.812 41.3281 102.477 40.6484 102.242 39.8672C102.016 39.0781 101.902 38.2227 101.902 37.3008ZM104.07 37.0547V37.3008C104.07 37.9336 104.133 38.5273 104.258 39.082C104.391 39.6367 104.59 40.125 104.855 40.5469C105.129 40.9688 105.477 41.3008 105.898 41.543C106.32 41.7773 106.824 41.8945 107.41 41.8945C108.129 41.8945 108.723 41.7422 109.191 41.4375C109.66 41.1328 110.031 40.7305 110.305 40.2305C110.586 39.7305 110.805 39.1875 110.961 38.6016V35.7773C110.875 35.3477 110.742 34.9336 110.562 34.5352C110.391 34.1289 110.164 33.7695 109.883 33.457C109.609 33.1367 109.27 32.8828 108.863 32.6953C108.457 32.5078 107.98 32.4141 107.434 32.4141C106.84 32.4141 106.328 32.5391 105.898 32.7891C105.477 33.0312 105.129 33.3672 104.855 33.7969C104.59 34.2188 104.391 34.7109 104.258 35.2734C104.133 35.8281 104.07 36.4219 104.07 37.0547ZM118.25 25.5V43.5H116.07V25.5H118.25ZM126.992 43.7344C126.109 43.7344 125.309 43.5859 124.59 43.2891C123.879 42.9844 123.266 42.5586 122.75 42.0117C122.242 41.4648 121.852 40.8164 121.578 40.0664C121.305 39.3164 121.168 38.4961 121.168 37.6055V37.1133C121.168 36.082 121.32 35.1641 121.625 34.3594C121.93 33.5469 122.344 32.8594 122.867 32.2969C123.391 31.7344 123.984 31.3086 124.648 31.0195C125.312 30.7305 126 30.5859 126.711 30.5859C127.617 30.5859 128.398 30.7422 129.055 31.0547C129.719 31.3672 130.262 31.8047 130.684 32.3672C131.105 32.9219 131.418 33.5781 131.621 34.3359C131.824 35.0859 131.926 35.9062 131.926 36.7969V37.7695H122.457V36H129.758V35.8359C129.727 35.2734 129.609 34.7266 129.406 34.1953C129.211 33.6641 128.898 33.2266 128.469 32.8828C128.039 32.5391 127.453 32.3672 126.711 32.3672C126.219 32.3672 125.766 32.4727 125.352 32.6836C124.938 32.8867 124.582 33.1914 124.285 33.5977C123.988 34.0039 123.758 34.5 123.594 35.0859C123.43 35.6719 123.348 36.3477 123.348 37.1133V37.6055C123.348 38.207 123.43 38.7734 123.594 39.3047C123.766 39.8281 124.012 40.2891 124.332 40.6875C124.66 41.0859 125.055 41.3984 125.516 41.625C125.984 41.8516 126.516 41.9648 127.109 41.9648C127.875 41.9648 128.523 41.8086 129.055 41.4961C129.586 41.1836 130.051 40.7656 130.449 40.2422L131.762 41.2852C131.488 41.6992 131.141 42.0938 130.719 42.4688C130.297 42.8438 129.777 43.1484 129.16 43.3828C128.551 43.6172 127.828 43.7344 126.992 43.7344ZM147.031 36.8086H142.473V34.9688H147.031C147.914 34.9688 148.629 34.8281 149.176 34.5469C149.723 34.2656 150.121 33.875 150.371 33.375C150.629 32.875 150.758 32.3047 150.758 31.6641C150.758 31.0781 150.629 30.5273 150.371 30.0117C150.121 29.4961 149.723 29.082 149.176 28.7695C148.629 28.4492 147.914 28.2891 147.031 28.2891H143V43.5H140.738V26.4375H147.031C148.32 26.4375 149.41 26.6602 150.301 27.1055C151.191 27.5508 151.867 28.168 152.328 28.957C152.789 29.7383 153.02 30.6328 153.02 31.6406C153.02 32.7344 152.789 33.668 152.328 34.4414C151.867 35.2148 151.191 35.8047 150.301 36.2109C149.41 36.6094 148.32 36.8086 147.031 36.8086ZM157.906 25.5V43.5H155.727V25.5H157.906ZM168.863 41.332V34.8047C168.863 34.3047 168.762 33.8711 168.559 33.5039C168.363 33.1289 168.066 32.8398 167.668 32.6367C167.27 32.4336 166.777 32.332 166.191 32.332C165.645 32.332 165.164 32.4258 164.75 32.6133C164.344 32.8008 164.023 33.0469 163.789 33.3516C163.562 33.6562 163.449 33.9844 163.449 34.3359H161.281C161.281 33.8828 161.398 33.4336 161.633 32.9883C161.867 32.543 162.203 32.1406 162.641 31.7812C163.086 31.4141 163.617 31.125 164.234 30.9141C164.859 30.6953 165.555 30.5859 166.32 30.5859C167.242 30.5859 168.055 30.7422 168.758 31.0547C169.469 31.3672 170.023 31.8398 170.422 32.4727C170.828 33.0977 171.031 33.8828 171.031 34.8281V40.7344C171.031 41.1562 171.066 41.6055 171.137 42.082C171.215 42.5586 171.328 42.9688 171.477 43.3125V43.5H169.215C169.105 43.25 169.02 42.918 168.957 42.5039C168.895 42.082 168.863 41.6914 168.863 41.332ZM169.238 35.8125L169.262 37.3359H167.07C166.453 37.3359 165.902 37.3867 165.418 37.4883C164.934 37.582 164.527 37.7266 164.199 37.9219C163.871 38.1172 163.621 38.3633 163.449 38.6602C163.277 38.9492 163.191 39.2891 163.191 39.6797C163.191 40.0781 163.281 40.4414 163.461 40.7695C163.641 41.0977 163.91 41.3594 164.27 41.5547C164.637 41.7422 165.086 41.8359 165.617 41.8359C166.281 41.8359 166.867 41.6953 167.375 41.4141C167.883 41.1328 168.285 40.7891 168.582 40.3828C168.887 39.9766 169.051 39.582 169.074 39.1992L170 40.2422C169.945 40.5703 169.797 40.9336 169.555 41.332C169.312 41.7305 168.988 42.1133 168.582 42.4805C168.184 42.8398 167.707 43.1406 167.152 43.3828C166.605 43.6172 165.988 43.7344 165.301 43.7344C164.441 43.7344 163.688 43.5664 163.039 43.2305C162.398 42.8945 161.898 42.4453 161.539 41.8828C161.188 41.3125 161.012 40.6758 161.012 39.9727C161.012 39.293 161.145 38.6953 161.41 38.1797C161.676 37.6562 162.059 37.2227 162.559 36.8789C163.059 36.5273 163.66 36.2617 164.363 36.082C165.066 35.9023 165.852 35.8125 166.719 35.8125H169.238ZM177.816 42.1875L181.344 30.8203H183.664L178.578 45.457C178.461 45.7695 178.305 46.1055 178.109 46.4648C177.922 46.832 177.68 47.1797 177.383 47.5078C177.086 47.8359 176.727 48.1016 176.305 48.3047C175.891 48.5156 175.395 48.6211 174.816 48.6211C174.645 48.6211 174.426 48.5977 174.16 48.5508C173.895 48.5039 173.707 48.4648 173.598 48.4336L173.586 46.6758C173.648 46.6836 173.746 46.6914 173.879 46.6992C174.02 46.7148 174.117 46.7227 174.172 46.7227C174.664 46.7227 175.082 46.6562 175.426 46.5234C175.77 46.3984 176.059 46.1836 176.293 45.8789C176.535 45.582 176.742 45.1719 176.914 44.6484L177.816 42.1875ZM175.227 30.8203L178.52 40.6641L179.082 42.9492L177.523 43.7461L172.859 30.8203H175.227Z" fill="white"/>
</svg>
